# xmcd
#
# Track frame offsets: 
#        150
#        52350
#        90855
#        118107
#        156975
#        215665
#        244005
#
# Disc length: 3898 seconds
#
# Revision: 1
# Processed by: cddbd v1.5.2PL0 Copyright (c) Steve Scherf et al.
# Submitted via: ExactAudioCopy v1.1
#
DISCID=600f3807
DTITLE=香取真理 - CDドラマコレクションズ 三國志DX3 浪漫編・西暦0200の輪舞曲
DYEAR=1994
DGENRE=Drama
TTITLE0=塩沢兼人・中原茂・遠藤武・磯部弘・平野正人・緑川光・麻生智久・緒方惠美・速水獎・梁田清之・他 - 水の中の月 La Lune
TTITLE0=sous l'Eau
TTITLE1=塩沢兼人・中原茂・遠藤武・磯部弘・平野正人・緑川光・麻生智久・緒方惠美・速水獎・梁田清之・他 - 夢の欠片 Les Frag
TTITLE1=ments du Reve
TTITLE2=塩沢兼人・中原茂・遠藤武・磯部弘・平野正人・緑川光・麻生智久・緒方惠美・速水獎・梁田清之・他 - 炎鳴 Fanatique
TTITLE3=塩沢兼人・中原茂・遠藤武・磯部弘・平野正人・緑川光・麻生智久・緒方惠美・速水獎・梁田清之・他 - 夜を駆ける La Bete
TTITLE3=en Tenebres
TTITLE4=塩沢兼人・中原茂・遠藤武・磯部弘・平野正人・緑川光・麻生智久・緒方惠美・速水獎・梁田清之・他 - 黄金宮 Palais d'
TTITLE4=Or
TTITLE5=塩沢兼人・中原茂・遠藤武・磯部弘・平野正人・緑川光・麻生智久・緒方惠美・速水獎・梁田清之・他 - 風花 La Premier
TTITLE5=e Neige
TTITLE6=塩沢兼人・中原茂・遠藤武・磯部弘・平野正人・緑川光・麻生智久・緒方惠美・速水獎・梁田清之・他 - 輪舞 La Ronde
EXTD=YEAR: 1994/7/25
EXTT0=
EXTT1=
EXTT2=
EXTT3=
EXTT4=
EXTT5=
EXTT6=
PLAYORDER=
